<svg width="44" height="43" viewBox="0 0 44 43" fill="none" xmlns="http://www.w3.org/2000/svg">
<path fill-rule="evenodd" clip-rule="evenodd" d="M22.0067 42.9998C33.6613 42.9998 43.1091 33.5519 43.1091 21.8973C43.1091 10.2428 33.6613 0.794922 22.0067 0.794922C10.3522 0.794922 0.904297 10.2428 0.904297 21.8973C0.904297 33.5519 10.3522 42.9998 22.0067 42.9998Z" fill="#353945"/>
<path fill-rule="evenodd" clip-rule="evenodd" d="M22.0078 25.5814C20.6238 25.5814 19.4977 24.479 19.4977 23.126C19.4977 21.7721 20.6238 20.6697 22.0078 20.6697C23.3918 20.6697 24.5179 21.7721 24.5179 23.126C24.5179 24.479 23.3918 25.5814 22.0078 25.5814ZM22.0069 19.6549C20.0498 19.6549 18.4581 21.2119 18.4581 23.1263C18.4581 25.0398 20.0498 26.5969 22.0069 26.5969C23.9639 26.5969 25.5557 25.0398 25.5557 23.1263C25.5557 21.2119 23.9639 19.6549 22.0069 19.6549ZM30.1432 26.8492C30.1432 27.607 29.5131 28.2225 28.7384 28.2225H15.2755C14.5008 28.2225 13.8707 27.607 13.8707 26.8492V19.5338C13.8707 18.7768 14.5008 18.1604 15.2755 18.1604H17.1901C17.809 18.1604 18.3681 17.7777 18.5811 17.2071L19.0831 15.8583C19.1454 15.6881 19.3133 15.5738 19.4986 15.5738H24.5154C24.7006 15.5738 24.8685 15.6881 24.9317 15.8591L25.4329 17.2079C25.6458 17.7777 26.2049 18.1604 26.8238 18.1604H28.7384C29.5131 18.1604 30.1432 18.7768 30.1432 19.5338V26.8492ZM28.738 17.1451H26.8234C26.639 17.1451 26.4719 17.03 26.4079 16.8598L25.9076 15.5118C25.6964 14.9412 25.1364 14.5576 24.5149 14.5576H19.4981C18.8766 14.5576 18.3166 14.9412 18.1063 15.511L17.6051 16.8589C17.5411 17.03 17.374 17.1451 17.1897 17.1451H15.275C13.9273 17.1451 12.8315 18.217 12.8315 19.5336V26.849C12.8315 28.1665 13.9273 29.2376 15.275 29.2376H28.738C30.0857 29.2376 31.1815 28.1665 31.1815 26.849V19.5336C31.1815 18.217 30.0857 17.1451 28.738 17.1451Z" fill="white"/>
</svg>
