<svg width="22" height="23" viewBox="0 0 22 23" fill="none" xmlns="http://www.w3.org/2000/svg">
<g clip-path="url(#clip0_8977_940)">
<path d="M5.54375 4.29523L5.2025 3.93773C4.86125 3.58023 4.31 3.58939 3.9775 3.93773L3.96875 3.94689C3.6275 4.30439 3.6275 4.88189 3.96875 5.23023L4.31 5.58773C4.65125 5.94523 5.19375 5.94523 5.535 5.58773L5.54375 5.57856C5.885 5.23023 5.885 4.64356 5.54375 4.29523ZM2.88375 10.1252H1.99125C1.51 10.1252 1.125 10.5286 1.125 11.0327V11.0419C1.125 11.5461 1.51 11.9494 1.99125 11.9494H2.875C3.365 11.9586 3.75 11.5552 3.75 11.0511V11.0419C3.75 10.5286 3.365 10.1252 2.88375 10.1252ZM10.7588 1.00439H10.75C10.26 1.00439 9.875 1.40773 9.875 1.91189V2.79189C9.875 3.29606 10.26 3.69939 10.7413 3.69939H10.75C11.24 3.70856 11.625 3.30523 11.625 2.80106V1.91189C11.625 1.40773 11.24 1.00439 10.7588 1.00439ZM17.5313 3.94689C17.19 3.58939 16.6388 3.58939 16.2975 3.93773L15.9563 4.29523C15.615 4.65273 15.615 5.23023 15.9563 5.57856L15.965 5.58773C16.3063 5.94523 16.8575 5.94523 17.19 5.58773L17.5313 5.23023C17.8725 4.87273 17.8725 4.30439 17.5313 3.94689ZM15.9475 17.7886L16.2888 18.1461C16.63 18.5036 17.1813 18.5036 17.5225 18.1461C17.8638 17.7886 17.8638 17.2111 17.5225 16.8536L17.1813 16.4961C16.84 16.1386 16.2888 16.1477 15.9563 16.4961C15.6063 16.8627 15.6063 17.4311 15.9475 17.7886ZM17.75 11.0327V11.0419C17.75 11.5461 18.135 11.9494 18.6163 11.9494H19.5C19.9813 11.9494 20.3663 11.5461 20.3663 11.0419V11.0327C20.3663 10.5286 19.9813 10.1252 19.5 10.1252H18.6163C18.135 10.1252 17.75 10.5286 17.75 11.0327ZM10.75 5.54189C7.85375 5.54189 5.5 8.00773 5.5 11.0419C5.5 14.0761 7.85375 16.5419 10.75 16.5419C13.6463 16.5419 16 14.0761 16 11.0419C16 8.00773 13.6463 5.54189 10.75 5.54189ZM10.7413 21.0794H10.75C11.2313 21.0794 11.6163 20.6761 11.6163 20.1719V19.2919C11.6163 18.7877 11.2313 18.3844 10.75 18.3844H10.7413C10.26 18.3844 9.875 18.7877 9.875 19.2919V20.1719C9.875 20.6761 10.26 21.0794 10.7413 21.0794ZM3.96875 18.1369C4.31 18.4944 4.86125 18.4944 5.2025 18.1369L5.54375 17.7794C5.885 17.4219 5.87625 16.8444 5.54375 16.4961L5.535 16.4869C5.19375 16.1294 4.6425 16.1294 4.30125 16.4869L3.96 16.8444C3.6275 17.2111 3.6275 17.7794 3.96875 18.1369Z" fill="#2C2F32"/>
</g>
<defs>
<clipPath id="clip0_8977_940">
<rect width="21" height="22" fill="white" transform="translate(0.25 0.5)"/>
</clipPath>
</defs>
</svg>
