<svg width="19" height="16" viewBox="0 0 19 16" fill="none" xmlns="http://www.w3.org/2000/svg">
<path fill-rule="evenodd" clip-rule="evenodd" d="M12.7797 5.58424C12.6295 5.5857 12.4825 5.54131 12.3596 5.45731C12.2367 5.37332 12.1439 5.25395 12.0945 5.11603L10.5051 0.467984C10.4546 0.330974 10.3617 0.212487 10.2393 0.128721C10.1168 0.044956 9.97074 0 9.82101 0C9.67128 0 9.5252 0.044956 9.40275 0.128721C9.2803 0.212487 9.18744 0.330974 9.13688 0.467984L7.53877 5.10752C7.48931 5.24544 7.39659 5.36481 7.27366 5.4488C7.15074 5.5328 7.0038 5.57719 6.85356 5.57573H1.67612C1.52717 5.57228 1.38094 5.61496 1.25856 5.69759C1.13618 5.78022 1.04398 5.89853 0.995287 6.03542C0.947657 6.17195 0.946876 6.31982 0.993061 6.45682C1.03925 6.59382 1.1299 6.71256 1.25142 6.7952L5.45467 9.68746C5.57485 9.76873 5.66489 9.8855 5.71142 10.0204C5.75796 10.1554 5.75851 10.3013 5.71299 10.4366L4.1105 15.1102C4.07651 15.2129 4.06852 15.322 4.08719 15.4283C4.10587 15.5347 4.15066 15.6351 4.21778 15.721C4.28573 15.8074 4.37365 15.8771 4.47442 15.9244C4.5752 15.9718 4.68601 15.9954 4.79791 15.9934C4.94972 15.9928 5.09751 15.9459 5.22042 15.8593L9.39302 12.9883C9.5178 12.9034 9.66646 12.8578 9.81882 12.8578C9.97117 12.8578 10.1198 12.9034 10.2446 12.9883L14.4172 15.8593C14.5401 15.9459 14.6879 15.9928 14.8397 15.9934C14.9516 15.9954 15.0624 15.9718 15.1632 15.9244C15.264 15.8771 15.3519 15.8074 15.4199 15.721C15.487 15.6351 15.5318 15.5347 15.5504 15.4283C15.5691 15.322 15.5611 15.2129 15.5271 15.1102L13.9246 10.4408C13.8791 10.3056 13.8797 10.1596 13.9262 10.0247C13.9727 9.88975 14.0628 9.77298 14.183 9.69171L18.3884 6.8101C18.5099 6.72746 18.6006 6.60872 18.6468 6.47172C18.6929 6.33472 18.6922 6.18685 18.6445 6.05032C18.5958 5.91342 18.5036 5.79512 18.3813 5.71249C18.2589 5.62986 18.1127 5.58718 17.9637 5.59062L12.7797 5.58424Z" fill="#508A7B"/>
</svg>
